<svg width="25" height="25" viewBox="0 0 25 25" version="1.1" xmlns="http://www.w3.org/2000/svg" xmlns:xlink="http://www.w3.org/1999/xlink">
<title>svg-close-btn-black-5</title>
<desc>Created using Figma</desc>
<g id="Canvas" transform="translate(617 217)">
<g id="svg-close-btn-black-5">
<g id="Close Buttons">
<g id="Group 6">
<g id="Group">
<g id="Line">
<use xlink:href="#path0_stroke" transform="translate(-608.5 -208.5)" fill="#222222"/>
</g>
<g id="Line">
<use xlink:href="#path1_stroke" transform="translate(-608.5 -208.5)" fill="#222222"/>
</g>
<g id="Rectangle 4">
<use xlink:href="#path2_stroke" transform="translate(-616 -216)" fill="#222222"/>
</g>
</g>
</g>
</g>
</g>
</g>
<defs>
<path id="path0_stroke" d="M -1.06066 6.93934L -2.12132 8L 0 10.1213L 1.06066 9.06066L -1.06066 6.93934ZM 9.06066 1.06066L 10.1213 0L 8 -2.12132L 6.93934 -1.06066L 9.06066 1.06066ZM 1.06066 9.06066L 9.06066 1.06066L 6.93934 -1.06066L -1.06066 6.93934L 1.06066 9.06066Z"/>
<path id="path1_stroke" d="M 1.06066 -1.06066L 0 -2.12132L -2.12132 0L -1.06066 1.06066L 1.06066 -1.06066ZM 6.93934 9.06066L 8 10.1213L 10.1213 8L 9.06066 6.93934L 6.93934 9.06066ZM -1.06066 1.06066L 6.93934 9.06066L 9.06066 6.93934L 1.06066 -1.06066L -1.06066 1.06066Z"/>
<path id="path2_stroke" d="M 4 1L 19 1L 19 -1L 4 -1L 4 1ZM 19 1C 20.6569 1 22 2.34315 22 4L 24 4C 24 1.23858 21.7614 -1 19 -1L 19 1ZM 22 4L 22 19L 24 19L 24 4L 22 4ZM 22 19C 22 20.6569 20.6569 22 19 22L 19 24C 21.7614 24 24 21.7614 24 19L 22 19ZM 19 22L 4 22L 4 24L 19 24L 19 22ZM 4 22C 2.34315 22 1 20.6569 1 19L -1 19C -1 21.7614 1.23858 24 4 24L 4 22ZM 1 19L 1 4L -1 4L -1 19L 1 19ZM 1 4C 1 2.34315 2.34315 1 4 1L 4 -1C 1.23858 -1 -1 1.23858 -1 4L 1 4Z"/>
</defs>
</svg>
